#!OML:ASF F:\VICON\USERDATA\INSTALL\rory3\rory3.ASF
:FULLY-SPECIFIED
:DEGREES
3163
root -3.78174 17.8634 -13.4992 17.3899 42.0194 9.97795
lowerback 11.7784 2.53475 1.75141
upperback 6.38387 3.86551 8.23543
thorax -0.35448 1.94752 7.22086
lowerneck -6.99289 -11.5341 -6.86478
upperneck 33.5506 -16.6621 6.53927
head 13.7146 -7.015 1.45583
rclavicle 8.42847e-014 7.31528e-014
rhumerus 13.955 -10.8386 -93.8884
rradius 30.9115
rwrist -12.553
rhand -16.1327 -14.2153
rfingers 7.12502
rthumb 10.0722 -43.9543
lclavicle 8.42847e-014 7.31528e-014
lhumerus -17.5945 -30.5996 93.1001
lradius 66.236
lwrist 66.4058
lhand -22.0487 59.054
lfingers 7.12502
lthumb 4.36173 -631.011
rfemur -22.9066 -5.50972 16.1717
rtibia 39.0357
rfoot -26.9245 -8.51409
rtoes 10.942
lfemur -32.5566 -0.333787 -20.0336
ltibia 15.4635
lfoot -3.98247 4.89301
ltoes -17.8154
3164
root -3.73997 17.8718 -13.4969 17.3309 42.0238 9.8217
lowerback 11.76 2.38606 1.72474
upperback 6.38923 3.66229 8.17071
thorax -0.313175 1.84479 7.19376
lowerneck -6.9975 -11.4081 -6.93286
upperneck 33.7029 -16.4771 6.52314
head 13.7721 -6.94196 1.48924
rclavicle 6.20208e-014 4.77083e-014
rhumerus 13.5378 -11.9969 -93.7589
rradius 30.7431
rwrist -12.5217
rhand -17.0251 -14.6598
rfingers 7.12502
rthumb 9.21108 -44.4387
lclavicle 6.20208e-014 4.77083e-014
lhumerus -17.4924 -31.8136 93.809
lradius 66.1464
lwrist 66.1881
lhand -21.712 59.3541
lfingers 7.12502
lthumb 4.68684 -630.718
rfemur -22.8093 -5.50232 16.2146
rtibia 38.9308
rfoot -27.0513 -8.82332
rtoes 11.7044
lfemur -32.426 -0.411261 -19.5279
ltibia 15.0677
lfoot -3.45482 5.48898
ltoes -17.2084
3165
root -3.6957 17.8728 -13.5022 17.5792 41.874 9.8462
lowerback 11.4324 2.21876 1.48838
upperback 6.51669 3.38514 8.07462
thorax 0.0233749 1.69611 7.27798
lowerneck -7.25239 -11.1778 -7.03054
upperneck 33.8067 -16.1338 6.51442
head 13.8505 -6.80113 1.53985
rclavicle 6.36111e-015 6.36111e-015
rhumerus 13.4524 -12.886 -93.4728
rradius 30.4431
rwrist -12.7103
rhand -17.5743 -15.1916
rfingers 7.12502
rthumb 8.6812 -44.9931
lclavicle 6.36111e-015 6.36111e-015
lhumerus -17.099 -32.9111 94.3695
lradius 66.152
lwrist 66.0356
lhand -21.6682 59.7332
lfingers 7.12502
lthumb 4.72919 -630.34
rfemur -23.0237 -5.53957 16.0865
rtibia 38.8993
rfoot -26.9237 -9.12888
rtoes 10.4408
lfemur -32.467 -0.652786 -19.0986
ltibia 14.5725
lfoot -2.78002 6.37413
ltoes -17.117
3166
root -3.65184 17.8761 -13.5049 17.5444 41.7907 9.63756
lowerback 11.2635 2.07778 1.40053
upperback 6.63488 3.17127 8.01867
thorax 0.263478 1.58325 7.30441
lowerneck -7.31164 -10.9716 -6.99759
upperneck 33.7694 -15.8353 6.49056
head 13.8114 -6.67784 1.57031
rclavicle -9.54166e-015 3.81667e-014
rhumerus 13.2055 -13.7945 -92.9769
rradius 30.1699
rwrist -12.794
rhand -18.0241 -15.6651
rfingers 7.12502
rthumb 8.24711 -45.4841
lclavicle -9.54166e-015 3.81667e-014
lhumerus -16.802 -34.2388 94.9831
lradius 66.1947
lwrist 65.8909
lhand -21.2489 60.3709
lfingers 7.12502
lthumb 5.13402 -810.289
rfemur -23.071 -5.54697 16.1213
rtibia 38.8521
rfoot -26.8847 -9.1799
rtoes 10.0852
lfemur -32.3957 -0.797073 -18.5264
ltibia 14.1483
lfoot -1.81476 7.00633
ltoes -17.7782
3167
root -3.60409 17.8796 -13.5101 17.6236 41.6533 9.61933
lowerback 11.2255 1.93546 1.24657
upperback 6.70562 2.95689 7.87526
thorax 0.383489 1.47025 7.26667
lowerneck -7.31905 -10.7856 -6.91877
upperneck 33.6953 -15.5515 6.39823
head 13.7339 -6.56722 1.56741
rclavicle 3.18055e-014 0
rhumerus 12.8577 -14.8982 -92.5649
rradius 29.9041
rwrist -12.7548
rhand -19.3001 -15.1017
rfingers 7.12502
rthumb 7.01548 -44.9654
lclavicle 3.18055e-014 0
lhumerus -16.5115 -35.6485 95.6031
lradius 66.1565
lwrist 65.7833
lhand -20.2919 61.193
lfingers 7.12502
lthumb 6.05802 -811.086
rfemur -23.0974 -5.63753 15.9865
rtibia 38.8104
rfoot -26.8301 -9.14592
rtoes 10.0572
lfemur -32.2906 -1.02704 -18.0817
ltibia 13.7905
lfoot -0.774964 7.58066
ltoes -18.0333
3168
root -3.55948 17.8807 -13.5147 17.5511 41.4838 9.38526
lowerback 11.3122 1.7676 1.13168
upperback 6.73977 2.72403 7.78744
thorax 0.39895 1.35012 7.26403
lowerneck -7.31703 -10.5522 -6.87051
upperneck 33.6454 -15.2022 6.31851
head 13.6645 -6.43051 1.5848
rclavicle -5.725e-014 -1.01778e-013
rhumerus 12.4275 -15.8473 -92.0471
rradius 29.6555
rwrist -13.0183
rhand -21.0284 -13.3046
rfingers 7.12502
rthumb 5.34688 -43.2171
lclavicle -5.725e-014 -1.01778e-013
lhumerus -16.3224 -36.9414 96.2715
lradius 66.143
lwrist 65.7943
lhand -20.4794 62.3522
lfingers 7.12502
lthumb 5.87703 -812.251
rfemur -23.0751 -5.44181 16.0254
rtibia 38.7234
rfoot -26.8991 -9.18882
rtoes 10.3747
lfemur -32.2705 -1.12462 -17.4843
ltibia 13.6092
lfoot 0.351663 8.07751
ltoes -18.5032
3169
root -3.51063 17.8872 -13.52 17.6509 41.2203 9.22916
lowerback 11.2994 1.69401 1.08716
upperback 6.70945 2.61437 7.5902
thorax 0.39251 1.29457 7.08741
lowerneck -7.3984 -10.3808 -6.77593
upperneck 33.7797 -14.9834 6.31139
head 13.7116 -6.32276 1.59742
rclavicle 9.54166e-014 -8.90555e-014
rhumerus 11.882 -17.304 -91.5087
rradius 29.5694
rwrist -12.9834
rhand -20.1622 -15.3082
rfingers 7.12502
rthumb 6.18326 -45.198
lclavicle 9.54166e-014 -8.90555e-014
lhumerus -16.2104 -38.6259 96.9911
lradius 65.9993
lwrist 65.2895
lhand -20.324 62.4788
lfingers 7.12502
lthumb 6.02703 -812.373
rfemur -23.1927 -5.23852 15.9564
rtibia 38.6311
rfoot -26.949 -9.20178
rtoes 10.3109
lfemur -32.4117 -1.24849 -16.9429
ltibia 13.5677
lfoot 1.64844 8.497
ltoes -18.6843
